<?xml version="1.0" encoding="UTF-8"?><svg id="Ebene_2" xmlns="http://www.w3.org/2000/svg" viewBox="0 0 595.28 841.89"><defs><style>.cls-1{fill:#ce433d;}.cls-2{fill:#9d8788;}.cls-3{fill:#49527f;}</style></defs><polygon class="cls-2" points="21.51 268.29 21.51 20.06 168.94 20.06 195 78.34 572.83 78.34 572.83 327.26 204.49 327.26 177.63 268.29 21.51 268.29"/><polygon class="cls-3" points="11.19 268.3 10.63 8.74 175.8 8.74 202.54 66.69 583.8 66.69 583.8 326.91 575.91 326.91 575.91 75.94 196.71 75.94 170.66 16.97 19.11 16.97 19.11 268.29 11.19 268.3"/><polygon class="cls-3" points="11.23 272.4 175.11 272.4 201.17 331.03 585.51 331.03 585.51 686.57 576.94 686.57 576.94 338.23 196.37 338.23 168.26 280.63 19.11 280.63 19.11 627.6 10.89 627.6 11.23 272.4"/><path class="cls-3" d="m169.71,639.19l25.14,53.73,2.29,4.9h379.88v127.34H19.39v-185.97h150.32m5.41-8.5H10.89v202.97h574.63v-144.34H202.54l-27.43-58.63h0Z"/><polygon class="cls-1" points="22.89 643.03 166.89 643.03 195.34 702 572.83 702 572.83 822 22.54 822 22.89 643.03"/></svg>