<?xml version="1.0" encoding="utf-8"?>
<!-- Generator: Adobe Illustrator 27.2.0, SVG Export Plug-In . SVG Version: 6.00 Build 0)  -->
<svg version="1.1" id="Ebene_2_00000032637401068743731160000013047197975709394109_"
	 xmlns="http://www.w3.org/2000/svg" xmlns:xlink="http://www.w3.org/1999/xlink" x="0px" y="0px" viewBox="0 0 173.5 210.4"
	 style="enable-background:new 0 0 173.5 210.4;" xml:space="preserve">
<style type="text/css">
	.st0{fill:#6C27A1;}
</style>
<path class="st0" d="M-15.4,0.1c30.2-2.5,140.9,66.4,151.3,116.4c8.2,39.2-7,64.6-43.8,62.1s-53.3-36.1-35.4-56.8
	s40.7-26.3,48.8-2.1s-10.9,33.7-17.9,34s-21.5-4.6-13.3-20c3.5-6.7,24.2-6.7,14.4,12.6c4.9-1.1,21-10.9,6.3-28.1
	c-15.4-7.4-26.7,1.5-29.5,6.2c-2.8,4.7-10.9,33.1,17.9,39s47.4-16.1,44.2-35.4c-3.2-19.3-15.6-47-59.3-43.8S14.5,152.6,37,176.1
	s50.5,53,100.3,18.6c76.6-52.9,16.5-123.4-38.9-194.6L-15.4,0.1"/>
</svg>
